<?xml version="1.0" standalone="no"?><!DOCTYPE svg PUBLIC "-//W3C//DTD SVG 1.1//EN" "http://www.w3.org/Graphics/SVG/1.1/DTD/svg11.dtd"><svg t="1704436921690" class="icon" viewBox="0 0 1024 1024" version="1.1" xmlns="http://www.w3.org/2000/svg" p-id="26303" width="20" height="20" xmlns:xlink="http://www.w3.org/1999/xlink"><path d="M512 256a256 256 0 0 0-136.533333 472.32 64 64 0 0 1 29.866666 54.186667v6.826666a21.333333 21.333333 0 0 0 21.333334 21.333334h170.666666a21.333333 21.333333 0 0 0 21.333334-21.333334v-6.826666a63.146667 63.146667 0 0 1 29.866666-54.186667A256 256 0 0 0 512 256z m0 426.666667a170.666667 170.666667 0 1 1 170.666667-170.666667 170.666667 170.666667 0 0 1-170.666667 170.666667z m-85.333333 238.506666a42.666667 42.666667 0 0 0 12.373333 29.866667l17.92 17.92a42.666667 42.666667 0 0 0 29.866667 12.373333h50.346666a42.666667 42.666667 0 0 0 29.866667-12.373333l17.92-17.92a42.666667 42.666667 0 0 0 12.373333-29.866667V896h-170.666666zM490.666667 170.666667h42.666666a21.333333 21.333333 0 0 0 21.333334-21.333334v-85.333333a21.333333 21.333333 0 0 0-21.333334-21.333333h-42.666666a21.333333 21.333333 0 0 0-21.333334 21.333333v85.333333a21.333333 21.333333 0 0 0 21.333334 21.333334z m368.213333 24.746666l-30.293333-30.293333a20.48 20.48 0 0 0-29.866667 0L738.133333 225.28a21.76 21.76 0 0 0 0 30.293333l29.866667 30.293334a21.76 21.76 0 0 0 30.293333 0l60.16-60.586667a20.48 20.48 0 0 0 0.426667-29.866667z m-573.013333 29.866667L225.28 165.12a20.48 20.48 0 0 0-29.866667 0l-30.293333 30.293333a20.48 20.48 0 0 0 0 29.866667L225.28 285.866667a21.76 21.76 0 0 0 30.72 0l29.866667-29.866667a21.76 21.76 0 0 0 0-30.72zM960 469.333333h-85.333333a21.333333 21.333333 0 0 0-21.333334 21.333334v42.666666a21.333333 21.333333 0 0 0 21.333334 21.333334h85.333333a21.333333 21.333333 0 0 0 21.333333-21.333334v-42.666666a21.333333 21.333333 0 0 0-21.333333-21.333334z m-810.666667 0h-85.333333a21.333333 21.333333 0 0 0-21.333333 21.333334v42.666666a21.333333 21.333333 0 0 0 21.333333 21.333334h85.333333a21.333333 21.333333 0 0 0 21.333334-21.333334v-42.666666a21.333333 21.333333 0 0 0-21.333334-21.333334z" p-id="26304" fill="#ffffff"></path></svg>